<svg width="13" height="15" viewBox="0 0 13 15" fill="none" xmlns="http://www.w3.org/2000/svg">
<path d="M10.8315 14.3982C9.99151 15.1897 9.07439 15.0648 8.19156 14.6898C7.2573 14.3065 6.40018 14.2899 5.41449 14.6898C4.18024 15.2064 3.52883 15.0564 2.79171 14.3982C-1.39104 10.207 -0.773912 3.82452 3.97453 3.59121C5.13164 3.64954 5.93733 4.2078 6.61446 4.2578C7.62586 4.05782 8.59441 3.48289 9.67438 3.55788C10.9686 3.65787 11.9457 4.15781 12.5886 5.05769C9.91437 6.61583 10.5486 10.0404 13 10.9986C12.5114 12.2485 11.8772 13.49 10.8229 14.4065L10.8315 14.3982ZM6.52875 3.54122C6.40018 1.68312 7.95157 0.149981 9.73438 0C9.98294 2.14973 7.72871 3.74953 6.52875 3.54122Z" fill="currentColor"/>
</svg>
