<svg width="18" height="18" viewBox="0 0 18 18" fill="none" xmlns="http://www.w3.org/2000/svg">
<g clip-path="url(#clip0_1195_678)">
<path d="M17.6865 9.16862C17.6865 8.43117 17.6263 7.89303 17.496 7.33496H9.02371V10.6634H13.9967C13.8965 11.4906 13.3551 12.7363 12.1519 13.5734L12.135 13.6848L14.8138 15.7475L14.9994 15.7659C16.7039 14.2013 17.6865 11.8992 17.6865 9.16862Z" fill="#0079FB"/>
<path d="M9.0237 17.9384C11.4601 17.9384 13.5054 17.1411 14.9994 15.7659L12.1519 13.5734C11.3899 14.1015 10.3672 14.4703 9.0237 14.4703C6.63745 14.4703 4.61214 12.9057 3.89017 10.7432L3.78435 10.7521L0.998921 12.8947L0.962494 12.9954C2.44638 15.9252 5.4944 17.9384 9.0237 17.9384Z" fill="#34A853"/>
<path d="M3.89019 10.7431C3.69969 10.185 3.58944 9.58704 3.58944 8.9692C3.58944 8.35129 3.69969 7.75338 3.88016 7.19531L3.87512 7.07645L1.05478 4.89941L0.962507 4.94304C0.350926 6.15886 0 7.52419 0 8.9692C0 10.4142 0.350926 11.7795 0.962507 12.9953L3.89019 10.7431Z" fill="#FBBC05"/>
<path d="M9.0237 3.46802C10.7181 3.46802 11.8611 4.19551 12.5128 4.80346L15.0595 2.33196C13.4955 0.886947 11.4601 0 9.0237 0C5.4944 0 2.44638 2.01305 0.962494 4.94292L3.88015 7.19519C4.61214 5.03265 6.63745 3.46802 9.0237 3.46802Z" fill="#EB4335"/>
</g>
<defs>
<clipPath id="clip0_1195_678">
<rect width="17.6949" height="18" fill="white"/>
</clipPath>
</defs>
</svg>
