<svg width="14" height="14" viewBox="0 0 14 14" fill="none" xmlns="http://www.w3.org/2000/svg">
<path d="M8.30335 4.375H9.74002C10.0545 4.375 10.3658 4.4429 10.6563 4.57482C10.9468 4.70673 11.2108 4.90009 11.4332 5.14384C11.6555 5.3876 11.8319 5.67698 11.9522 5.99546C12.0725 6.31394 12.1345 6.65528 12.1345 7C12.1345 7.34472 12.0725 7.68606 11.9522 8.00454C11.8319 8.32302 11.6555 8.6124 11.4332 8.85615C11.2108 9.09991 10.9468 9.29327 10.6563 9.42518C10.3658 9.5571 10.0545 9.625 9.74002 9.625H8.30335M5.43 9.625H3.99333C3.67889 9.625 3.36752 9.5571 3.07701 9.42518C2.7865 9.29327 2.52254 9.09991 2.3002 8.85615C1.85115 8.36387 1.59888 7.69619 1.59888 7C1.59888 6.30381 1.85115 5.63613 2.3002 5.14384C2.74924 4.65156 3.35828 4.375 3.99333 4.375H5.43M4.95111 7H8.78224" stroke="currentColor" stroke-linecap="round" stroke-linejoin="round"/>
</svg>
