<svg width="20" height="21" viewBox="0 0 20 21" fill="none" xmlns="http://www.w3.org/2000/svg">
<path d="M14.1667 13.6824L17.5 10.349M17.5 10.349L14.1667 7.01571M17.5 10.349H5.83333M10.8333 13.6824V14.5157C10.8333 15.1787 10.5699 15.8146 10.1011 16.2835C9.63226 16.7523 8.99637 17.0157 8.33333 17.0157H5C4.33696 17.0157 3.70107 16.7523 3.23223 16.2835C2.76339 15.8146 2.5 15.1787 2.5 14.5157V6.18237C2.5 5.51933 2.76339 4.88345 3.23223 4.41461C3.70107 3.94577 4.33696 3.68237 5 3.68237H8.33333C8.99637 3.68237 9.63226 3.94577 10.1011 4.41461C10.5699 4.88345 10.8333 5.51933 10.8333 6.18237V7.01571" stroke="currentColor" stroke-width="2" stroke-linecap="round" stroke-linejoin="round"/>
</svg>
