<svg width="20" height="21" viewBox="0 0 20 21" fill="none" xmlns="http://www.w3.org/2000/svg">
<path d="M2.5 6.84119L9.075 11.2245C9.34888 11.4073 9.67075 11.5048 10 11.5048C10.3292 11.5048 10.6511 11.4073 10.925 11.2245L17.5 6.84119M4.16667 16.0079H15.8333C16.2754 16.0079 16.6993 15.8323 17.0118 15.5197C17.3244 15.2071 17.5 14.7832 17.5 14.3412V6.00785C17.5 5.56583 17.3244 5.1419 17.0118 4.82934C16.6993 4.51678 16.2754 4.34119 15.8333 4.34119H4.16667C3.72464 4.34119 3.30072 4.51678 2.98816 4.82934C2.67559 5.1419 2.5 5.56583 2.5 6.00785V14.3412C2.5 14.7832 2.67559 15.2071 2.98816 15.5197C3.30072 15.8323 3.72464 16.0079 4.16667 16.0079Z" stroke="currentColor" stroke-width="2" stroke-linecap="round" stroke-linejoin="round"/>
</svg>
